<svg width="384" height="384" viewBox="0 0 384 384" fill="none" xmlns="http://www.w3.org/2000/svg">
<path d="M191.998 293.96C146.778 293.96 101.548 293.96 56.3281 293.96C33.3581 293.96 18.0781 278.7 18.0781 255.76C18.0781 197.16 18.0781 138.57 18.0781 79.9697C18.0781 57.4497 33.4181 42.0697 55.8581 42.0497C73.2281 42.0397 90.5881 41.9997 107.958 42.0697C114.258 42.0997 119.308 46.7197 119.978 52.7297C120.638 58.7297 116.568 64.4197 110.548 65.7397C109.108 66.0597 107.568 66.0197 106.078 66.0197C89.2081 66.0397 72.3481 66.0197 55.4781 66.0397C46.8081 66.0397 42.0681 70.7897 42.0681 79.4897C42.0681 138.46 42.0681 197.43 42.0681 256.41C42.0681 265.26 46.8281 269.97 55.7581 269.97C146.578 269.97 237.408 269.97 328.228 269.97C337.198 269.97 341.928 265.3 341.928 256.41C341.928 197.44 341.928 138.47 341.928 79.4897C341.928 70.8497 337.128 66.0397 328.508 66.0397C311.018 66.0297 293.528 66.0797 276.038 66.0097C269.738 65.9797 264.668 61.3297 264.018 55.3397C263.378 49.4197 267.188 43.9197 273.088 42.4297C274.398 42.0997 275.808 42.0597 277.168 42.0597C294.408 42.0397 311.648 42.0097 328.888 42.0597C350.338 42.1097 365.908 57.6997 365.918 79.2197C365.948 138.44 365.948 197.66 365.918 256.89C365.908 278.36 350.298 293.94 328.808 293.96C283.208 294 237.608 293.97 192.008 293.97L191.998 293.96Z" fill="black"/>
<path d="M212.117 121.641C214.607 125.741 218.117 127.761 222.317 129.151C249.777 138.261 270.227 155.251 281.447 182.401C285.837 193.021 287.867 204.141 287.937 215.611C288.017 229.251 277.537 239.811 263.857 239.981C258.487 240.041 253.117 240.021 247.737 239.981C239.797 239.921 235.447 234.231 237.367 226.451C238.797 220.641 240.347 214.861 241.657 209.031C243.677 200.031 237.447 192.081 228.197 192.041C204.087 191.951 179.977 191.951 155.867 192.041C146.437 192.071 140.297 200.071 142.407 209.341C143.707 215.051 145.217 220.711 146.607 226.401C148.557 234.351 144.167 239.951 135.937 239.991C130.817 240.011 125.697 240.031 120.567 239.991C106.397 239.891 95.9871 229.391 96.0471 215.301C96.2071 176.291 121.827 141.951 159.867 129.781C163.577 128.601 167.187 127.341 169.947 124.361C171.557 122.621 172.167 121.691 169.397 120.151C152.427 110.671 143.947 95.9905 144.087 76.6105C144.257 52.5605 164.337 31.6705 188.367 30.1305C213.577 28.5105 235.797 46.1405 239.297 70.5405C242.307 91.5005 232.727 110.521 214.087 120.591C213.547 120.881 213.007 121.181 212.137 121.651L212.117 121.641Z" fill="black"/>
<path d="M191.908 353.939C173.048 353.939 154.188 353.919 135.318 353.959C132.718 353.959 130.368 353.489 128.448 351.609C124.318 347.559 125.518 341.379 131.018 339.669C139.108 337.149 144.598 332.179 147.428 324.149C148.918 319.919 152.168 317.939 156.678 317.949C180.158 317.969 203.648 317.949 227.128 317.969C232.128 317.969 235.148 319.959 236.818 324.649C239.488 332.139 244.588 336.919 252.108 339.319C256.378 340.679 258.318 343.319 257.908 346.849C257.458 350.819 254.258 353.799 249.988 353.909C244.868 354.039 239.748 353.949 234.628 353.949C220.388 353.949 206.148 353.949 191.908 353.949V353.939Z" fill="black"/>
<path d="M90.0439 84.0391C95.9039 84.0391 101.764 83.9891 107.624 84.0491C114.624 84.1191 119.934 89.2191 120.034 95.8391C120.134 102.639 114.784 107.959 107.624 108.009C95.9039 108.079 84.1839 108.079 72.4639 108.009C65.3139 107.969 59.9639 102.629 60.0639 95.8291C60.1639 89.1691 65.4239 84.1191 72.4639 84.0491C78.3239 83.9891 84.1839 84.0391 90.0439 84.0391Z" fill="black"/>
<path d="M74.5536 144.011C68.8336 144.581 63.7036 142.661 61.0136 136.611C57.6936 129.151 63.0536 120.621 71.2336 120.061C73.4636 119.911 75.7136 119.971 77.9536 120.031C84.8336 120.201 90.1036 125.481 90.0436 132.121C89.9936 138.611 84.8136 143.781 78.1236 144.011C77.1336 144.041 76.1336 144.011 74.5636 144.011H74.5536Z" fill="black"/>
<path d="M192.009 233.98C185.549 233.98 180.109 228.63 180.009 222.17C179.909 215.51 185.329 210 191.989 209.99C198.609 209.99 204.089 215.54 203.999 222.16C203.909 228.62 198.479 233.97 192.019 233.98H192.009Z" fill="black"/>
</svg>
